<svg width="243" height="166" viewBox="0 0 243 166" fill="none" xmlns="http://www.w3.org/2000/svg">
<path d="M183.895 0.624661C173.292 0.607902 162.887 3.50672 153.816 9.00517L153.669 9.09689L20.3546 90.9763C12.2105 95.5259 5.9306 102.808 2.62116 111.541C-0.688275 120.274 -0.814907 129.896 2.26357 138.713C5.34205 147.53 11.4281 154.976 19.4496 159.739C27.4711 164.502 36.9135 166.277 46.1131 164.75C50.0162 164.098 53.7992 162.861 57.3356 161.083L198.394 115.384C212.138 111.866 224.126 103.444 232.108 91.6977C240.089 79.9517 243.515 65.6908 241.742 51.5936C239.968 37.4963 233.117 24.5327 222.476 15.1375C211.834 5.74233 198.135 0.562039 183.95 0.569649L183.895 0.624661ZM192.737 114.009L61.1435 156.003C57.8368 157.628 54.3078 158.753 50.6717 159.341C48.6862 159.664 46.6784 159.829 44.6669 159.836C39.8478 159.879 35.0675 158.969 30.6002 157.158C26.1329 155.347 22.0665 152.671 18.6342 149.282C15.2019 145.893 12.4712 141.859 10.5987 137.411C8.72622 132.963 7.74878 128.189 7.72247 123.361C7.72384 114.45 11.017 105.853 16.9677 99.2284C19.7381 96.1362 23.013 93.538 26.6524 91.5448L151.015 16.3587L151.161 16.267C159.652 11.2112 169.349 8.54991 179.226 8.56507C192.379 8.33503 205.155 12.9743 215.104 21.5939C225.054 30.2136 231.479 42.2077 233.148 55.2781C234.817 68.3485 231.613 81.5763 224.15 92.4271C216.686 103.278 205.488 110.989 192.701 114.082L192.737 114.009Z" fill="#47A09F"/>
</svg>
