<svg width="98" height="169" viewBox="0 0 98 169" fill="none" xmlns="http://www.w3.org/2000/svg">
<path d="M59.7589 23.7891C59.0045 24.5698 58.031 25.192 56.8264 25.5458C52.2148 26.9243 46.9339 27.8515 41.2637 28.2175C41.0447 25.4116 38.7328 23.2035 35.8734 23.2035C33.0261 23.2035 30.702 25.4116 30.483 28.2175C24.8979 27.8637 19.7023 26.9487 15.1515 25.619C13.8373 25.2408 12.8031 24.5454 12.0122 23.6671C12.0122 23.7647 12 23.8501 12 23.9477C12 29.9254 14.1902 35.3664 17.8041 39.5631C19.4102 41.4296 21.3084 43.0399 23.4135 44.3453C27.0517 46.59 31.3104 47.9075 35.8977 47.9075C40.485 47.9075 44.7437 46.59 48.3819 44.3453C50.487 43.0399 52.3852 41.4418 53.9913 39.5631C57.593 35.3664 59.7954 29.9254 59.7954 23.9477C59.7589 23.8989 59.7589 23.8501 59.7589 23.7891Z" fill="#141645"/>
<path d="M28.3895 11.5895C33.6338 12.0775 38.9147 12.1263 44.159 11.6627C48.8315 11.248 52.8712 11.2236 56.7649 12.3703C52.7009 4.9896 44.8769 0 35.8727 0C26.8806 0 19.0567 4.9896 14.9805 12.3581C18.9837 11.1748 23.571 11.1382 28.3895 11.5895Z" fill="#141645"/>
<path d="M14.8819 25.619C19.4327 26.9609 24.6406 27.8637 30.2135 28.2175C30.4325 25.4116 32.7444 23.2035 35.6038 23.2035C38.4511 23.2035 40.7752 25.4116 40.9942 28.2175C46.6644 27.8515 51.9453 26.9244 56.5569 25.5458C57.7615 25.192 58.7349 24.5698 59.4893 23.7891C59.465 19.6412 58.3821 15.7496 56.5082 12.3581C52.6145 11.2114 48.5626 11.2358 43.9023 11.6505C38.658 12.1263 33.3649 12.0775 28.1206 11.5895C23.2899 11.1382 18.7027 11.1748 14.7116 12.3581C12.8499 15.713 11.7791 19.568 11.7305 23.6793C12.5335 24.5332 13.5678 25.2286 14.8819 25.619Z" fill="#3CC1D9"/>
<path d="M48.3248 29.6652C53.5984 28.8071 57.1796 23.8253 56.3238 18.538C55.4679 13.2507 50.499 9.66009 45.2254 10.5182C39.9518 11.3763 36.3706 16.3581 37.2264 21.6454C38.0823 26.9327 43.0512 30.5233 48.3248 29.6652Z" fill="#3CC1D9"/>
<path d="M48.2797 27.7144C52.4787 27.0312 55.3302 23.0645 54.6487 18.8546C53.9672 14.6447 50.0109 11.7858 45.8119 12.469C41.6129 13.1523 38.7614 17.1189 39.4429 21.3288C40.1244 25.5387 44.0807 28.3976 48.2797 27.7144Z" fill="#141645"/>
<path d="M21.1113 33.4023C21.1113 33.4023 36.8809 40.0022 43.6706 33.9513C38.2193 44.9918 25.3822 38.2821 21.1113 33.4023Z" fill="white"/>
<path d="M43.3174 25.3506L48.3549 17.1891" stroke="white" stroke-miterlimit="10" stroke-linecap="round"/>
<path d="M49.6697 16.1888C50.1334 16.1888 50.5092 15.79 50.5092 15.2982C50.5092 14.8063 50.1334 14.4076 49.6697 14.4076C49.206 14.4076 48.8301 14.8063 48.8301 15.2982C48.8301 15.79 49.206 16.1888 49.6697 16.1888Z" fill="white"/>
<path d="M47.4668 26.3754L49.7422 22.4471" stroke="white" stroke-miterlimit="10" stroke-linecap="round"/>
<path d="M35.1653 98.1208C26.5261 98.1208 18.544 100.902 12.0342 105.611C12.8373 115.285 22.7541 122.947 34.8976 122.947C34.9828 122.947 35.0679 122.935 35.1653 122.935C35.2505 122.935 35.3356 122.947 35.433 122.947C47.5765 122.947 57.5055 115.298 58.2964 105.611C51.7866 100.902 43.8045 98.1208 35.1653 98.1208Z" fill="#141645"/>
<path d="M79.1403 88.5685C79.1403 88.5685 92.6344 54.9466 51.2637 51.8114" stroke="#141645" stroke-width="4" stroke-miterlimit="10" stroke-linecap="round"/>
<path d="M71.5713 84.5305C72.0215 84.7501 83.946 93.0214 83.946 93.0214" stroke="#3CC1D9" stroke-width="4" stroke-miterlimit="10" stroke-linecap="round"/>
<path d="M86.1488 102.33L86.9154 95.6687L93.048 93.0092L98.0125 96.7056C97.6231 92.3748 93.9971 88.9711 89.5802 88.9711C84.8955 88.9711 81.1113 92.7774 81.1113 97.462C81.1113 102.159 84.9077 105.953 89.5802 105.953C90.0304 105.953 90.4563 105.904 90.8821 105.843L86.1488 102.33Z" fill="#25284D"/>
<path d="M35.6038 103.501C36.4841 103.501 37.1977 102.785 37.1977 101.903C37.1977 101.02 36.4841 100.305 35.6038 100.305C34.7234 100.305 34.0098 101.02 34.0098 101.903C34.0098 102.785 34.7234 103.501 35.6038 103.501Z" fill="white"/>
<path d="M24.9561 50.1156C23.2283 49.0543 21.683 47.7367 20.3689 46.2118C19.1886 47.6269 18.2882 49.2251 17.8014 50.9452H17.7893V50.994C17.5094 52.0066 17.3512 53.0435 17.3512 54.1171C17.3512 54.3123 17.3756 54.4953 17.3877 54.6905L17.0957 57.411C20.454 55.9104 23.1918 53.3241 24.9561 50.1156Z" fill="#25284D"/>
<path d="M45.374 50.1156C47.1384 53.3241 49.8761 55.9104 53.2345 57.411L52.9303 54.6905C52.9424 54.4953 52.9668 54.3123 52.9668 54.1171C52.9668 53.0435 52.8086 51.9944 52.5287 50.994V50.9452H52.5166C52.0298 49.2251 51.1416 47.6269 49.9491 46.2118C48.6472 47.7367 47.1019 49.0421 45.374 50.1156Z" fill="#25284D"/>
<path d="M58.0406 101.317L53.2343 57.4109C49.876 55.9104 47.1382 53.3241 45.3739 50.1156C42.4049 51.9456 38.9128 53.0191 35.1651 53.0191C31.4174 53.0191 27.9373 51.9456 24.9562 50.1156C23.1919 53.3241 20.4541 55.9104 17.0958 57.4109L12.2895 101.317C12.0826 102.305 11.9609 103.318 11.9609 104.355C11.9609 104.782 12.0096 105.196 12.0339 105.611C18.5438 100.902 26.5259 98.1208 35.1651 98.1208C43.8042 98.1208 51.7864 100.902 58.2962 105.611C58.3327 105.196 58.3692 104.782 58.3692 104.355C58.3813 103.318 58.2475 102.305 58.0406 101.317Z" fill="#3CC1D9"/>
<path d="M19.4929 112.126C19.4929 112.126 10.5 135.5 25 170.5" stroke="#141645" stroke-width="4" stroke-miterlimit="10" stroke-linecap="round"/>
<path d="M53.1641 110.582C53.1641 110.582 60.0001 146 61.0001 169" stroke="#141645" stroke-width="4" stroke-miterlimit="10" stroke-linecap="round"/>
<path d="M19.5053 51.8114C19.5053 51.8114 -12.0095 58.6065 10.6106 93.4849" stroke="#141645" stroke-width="4" stroke-miterlimit="10" stroke-linecap="round"/>
<path d="M26.2397 29.8375C32.1192 28.4456 35.76 22.5386 34.3717 16.6438C32.9834 10.749 27.0916 7.09873 21.2122 8.49065C15.3327 9.88258 11.6919 15.7896 13.0802 21.6844C14.4685 27.5792 20.3602 31.2295 26.2397 29.8375Z" fill="#3CC1D9"/>
<path d="M25.8961 28.4015C30.9711 27.2001 34.1138 22.1012 32.9154 17.013C31.7171 11.9247 26.6315 8.77383 21.5564 9.97531C16.4813 11.1768 13.3387 16.2756 14.537 21.3639C15.7354 26.4522 20.821 29.603 25.8961 28.4015Z" fill="#141645"/>
<path d="M18.4219 25.7532L25.7104 14.6638" stroke="white" stroke-miterlimit="10" stroke-linecap="round"/>
<path d="M26.9035 13.6391C27.3739 13.6391 27.7553 13.2567 27.7553 12.7851C27.7553 12.3135 27.3739 11.9311 26.9035 11.9311C26.4331 11.9311 26.0518 12.3135 26.0518 12.7851C26.0518 13.2567 26.4331 13.6391 26.9035 13.6391Z" fill="white"/>
<path d="M21.7686 27.1317L25.066 21.8005" stroke="white" stroke-miterlimit="10" stroke-linecap="round"/>
</svg>