<svg id="eb1ksj06lYT1" xmlns="http://www.w3.org/2000/svg" xmlns:xlink="http://www.w3.org/1999/xlink" viewBox="0 0 371 382" shape-rendering="geometricPrecision" text-rendering="geometricPrecision" style="background-color:transparent"><style><![CDATA[#eb1ksj06lYT5_tr {animation: eb1ksj06lYT5_tr__tr 1600ms linear infinite alternate forwards}@keyframes eb1ksj06lYT5_tr__tr { 0% {transform: translate(67.197342px,202.717995px) rotate(360deg)} 50% {transform: translate(67.197342px,202.717995px) rotate(540deg)} 100% {transform: translate(67.197342px,202.717995px) rotate(0deg)}} #eb1ksj06lYT6_tr {animation: eb1ksj06lYT6_tr__tr 1600ms linear infinite alternate forwards}@keyframes eb1ksj06lYT6_tr__tr { 0% {transform: translate(67.17915px,202.718002px) rotate(0deg)} 100% {transform: translate(67.17915px,202.718002px) rotate(360deg)}} #eb1ksj06lYT9_ts {animation: eb1ksj06lYT9_ts__ts 1600ms linear infinite alternate forwards}@keyframes eb1ksj06lYT9_ts__ts { 0% {transform: translate(325.15799px,101.363503px) scale(1,1)} 12.5% {transform: translate(325.15799px,101.363503px) scale(1,1)} 25% {transform: translate(325.15799px,101.363503px) scale(1,0.442763)} 37.5% {transform: translate(325.15799px,101.363503px) scale(1,1)} 50% {transform: translate(325.15799px,101.363503px) scale(1,0.327475)} 62.5% {transform: translate(325.15799px,101.363503px) scale(1,1)} 75% {transform: translate(325.15799px,101.363503px) scale(1,0.32456)} 87.5% {transform: translate(325.15799px,101.363503px) scale(1,1)} 100% {transform: translate(325.15799px,101.363503px) scale(1,0.38693)}} #eb1ksj06lYT10_ts {animation: eb1ksj06lYT10_ts__ts 1600ms linear infinite alternate forwards}@keyframes eb1ksj06lYT10_ts__ts { 0% {transform: translate(323.619995px,30.468651px) scale(1,1)} 12.5% {transform: translate(323.619995px,30.468651px) scale(1,1)} 25% {transform: translate(323.619995px,30.468651px) scale(0.332698,1)} 37.5% {transform: translate(323.619995px,30.468651px) scale(1,1)} 50% {transform: translate(323.619995px,30.468651px) scale(0.350702,1)} 62.5% {transform: translate(323.619995px,30.468651px) scale(1,1)} 75% {transform: translate(323.619995px,30.468651px) scale(0.281367,1)} 87.5% {transform: translate(323.619995px,30.468651px) scale(1,1)} 100% {transform: translate(323.619995px,30.468651px) scale(0.3507,1)}} #eb1ksj06lYT13_to {animation: eb1ksj06lYT13_to__to 1600ms linear infinite alternate forwards}@keyframes eb1ksj06lYT13_to__to { 0% {transform: translate(240.394506px,234.232013px)} 12.5% {transform: translate(266.299499px,259.391519px)} 25% {transform: translate(294.749499px,234.232013px)} 37.5% {transform: translate(266.299499px,205.817079px)} 50% {transform: translate(240.394506px,234.232013px)} 62.5% {transform: translate(266.299499px,259.391519px)} 75% {transform: translate(294.749499px,234.232013px)} 87.5% {transform: translate(266.299499px,205.817079px)} 100% {transform: translate(240.394506px,234.232013px)}} #eb1ksj06lYT14_to {animation: eb1ksj06lYT14_to__to 1600ms linear infinite alternate forwards}@keyframes eb1ksj06lYT14_to__to { 0% {transform: translate(134.930572px,280.175884px)} 6.25% {transform: translate(130.070352px,296.476574px)} 12.5% {transform: translate(108.897565px,306.252384px)} 17.5% {transform: translate(82.875797px,298.919911px)} 25% {transform: translate(75.721488px,283.953397px)} 31.25% {transform: translate(83.922922px,261.977088px)} 37.5% {transform: translate(108.897565px,254.099384px)} 43.75% {transform: translate(132.125235px,267.601831px)} 50% {transform: translate(134.930572px,280.175884px)} 56.25% {transform: translate(130.070352px,296.476574px)} 62.5% {transform: translate(108.897565px,306.252384px)} 67.5% {transform: translate(82.875797px,298.919911px)} 75% {transform: translate(75.721488px,283.953397px)} 81.25% {transform: translate(83.922922px,261.977088px)} 87.5% {transform: translate(108.897565px,254.099384px)} 93.75% {transform: translate(132.125235px,267.601831px)} 100% {transform: translate(134.930568px,280.175884px)}} #eb1ksj06lYT16_ts {animation: eb1ksj06lYT16_ts__ts 1600ms linear infinite alternate forwards}@keyframes eb1ksj06lYT16_ts__ts { 0% {transform: translate(247.003997px,77.363104px) scale(1,1)} 6.25% {transform: translate(247.003997px,77.363104px) scale(1,1)} 18.75% {transform: translate(247.003997px,77.363104px) scale(0.698525,1.25482)} 31.25% {transform: translate(247.003997px,77.363104px) scale(0.504722,2.095725)} 43.75% {transform: translate(247.003997px,77.363104px) scale(0.38699,2.614467)} 56.25% {transform: translate(247.003997px,77.363104px) scale(0.133785,1.913921)} 68.75% {transform: translate(247.003997px,77.363104px) scale(0.255648,1.898063)} 93.75% {transform: translate(247.003997px,77.363104px) scale(1,1.669378)} 100% {transform: translate(247.003997px,77.363104px) scale(1,1)}} #eb1ksj06lYT17_ts {animation: eb1ksj06lYT17_ts__ts 1600ms linear infinite alternate forwards}@keyframes eb1ksj06lYT17_ts__ts { 0% {transform: translate(176.392502px,97.732548px) scale(1,1)} 12.5% {transform: translate(176.392502px,97.732548px) scale(0.577516,1.146243)} 25% {transform: translate(176.392502px,97.732548px) scale(0.423022,1.337335)} 37.5% {transform: translate(176.392502px,97.732548px) scale(0.240188,1.580004)} 62.5% {transform: translate(176.392502px,97.732548px) scale(1.304875,0.733624)} 75% {transform: translate(176.392502px,97.732548px) scale(1.304875,1.07584)} 87.5% {transform: translate(176.392502px,97.732548px) scale(0.828775,1.07584)} 100% {transform: translate(176.392502px,97.732548px) scale(0.799049,1.022056)}} #eb1ksj06lYT18_to {animation: eb1ksj06lYT18_to__to 1600ms linear infinite alternate forwards}@keyframes eb1ksj06lYT18_to__to { 0% {transform: translate(311.921504px,368.742004px)} 6.25% {transform: translate(293.651504px,363.662594px)} 12.5% {transform: translate(304.562504px,346.479004px)} 18.75% {transform: translate(315.875504px,357.610504px)} 25% {transform: translate(296.817504px,348.780004px)} 31.25% {transform: translate(311.921504px,368.742004px)} 37.5% {transform: translate(293.651504px,363.662594px)} 43.75% {transform: translate(304.562504px,346.479004px)} 50% {transform: translate(315.875504px,357.610504px)} 56.25% {transform: translate(296.817504px,348.780004px)} 62.5% {transform: translate(311.921504px,368.742004px)} 68.75% {transform: translate(293.651504px,363.662594px)} 75% {transform: translate(304.562504px,346.479004px)} 81.25% {transform: translate(315.875504px,357.610504px)} 87.5% {transform: translate(296.817504px,348.780004px)} 93.75% {transform: translate(310.054004px,368.742004px)} 100% {transform: translate(304.763504px,358.105004px)}} #eb1ksj06lYT21_to {animation: eb1ksj06lYT21_to__to 1600ms linear infinite alternate forwards}@keyframes eb1ksj06lYT21_to__to { 0% {transform: translate(247.003998px,356.9505px)} 12.5% {transform: translate(246.694835px,343.858679px)} 25% {transform: translate(247.226293px,320.4575px)} 37.5% {transform: translate(247.003998px,310.5915px)} 50% {transform: translate(247.003998px,302.614513px)} 62.5% {transform: translate(247.003998px,322.7585px)} 75% {transform: translate(247.003998px,335.522px)} 87.5% {transform: translate(247.003998px,320.4575px)} 100% {transform: translate(247.003998px,357.6105px)}}]]></style><g id="eb1ksj06lYT2" clip-path="url(#eb1ksj06lYT22)"><g id="eb1ksj06lYT3"><path id="eb1ksj06lYT4" d="M268.826,160.641L101.332,160.641C59.7859,160.641,26.1064,194.377,26.1064,235.992L26.1064,306.649C26.1064,348.264,59.7859,382,101.332,382L268.826,382C310.372,382,344.052,348.264,344.052,306.649L344.052,235.992C344.052,194.377,310.372,160.641,268.826,160.641Z" transform="matrix(1 0 0 1 -0.166 0)" fill="rgb(14,15,17)" stroke="none" stroke-width="1"/><g id="eb1ksj06lYT5_tr" transform="translate(67.197342,202.717995) rotate(360)"><path id="eb1ksj06lYT5" d="M100.746,144.467L33.5756,144.467L0.054688,202.727L33.6305,260.969L100.746,260.969L134.34,202.727L100.746,144.467ZM94.759,250.571L39.5804,250.571L11.9911,202.727L39.5804,154.865L94.7407,154.865L122.312,202.727L94.759,250.571Z" transform="translate(-67.197342,-202.717995)" fill="rgb(135,210,215)" stroke="none" stroke-width="1"/></g><g id="eb1ksj06lYT6_tr" transform="translate(67.17915,202.718002) rotate(0)"><path id="eb1ksj06lYT6" d="M83.9394,173.625L50.3819,173.625L33.6123,202.727L50.3819,231.811L83.9394,231.811L100.746,202.727L83.9394,173.625Z" transform="translate(-67.17915,-202.718002)" fill="rgb(71,160,159)" stroke="none" stroke-width="1"/></g><path id="eb1ksj06lYT7" d="M67.1517,212.446C72.5105,212.446,76.8546,208.095,76.8546,202.727C76.8546,197.359,72.5105,193.008,67.1517,193.008C61.7929,193.008,57.4487,197.359,57.4487,202.727C57.4487,208.095,61.7929,212.446,67.1517,212.446Z" fill="rgb(65,81,78)" stroke="none" stroke-width="1"/><path id="eb1ksj06lYT8" d="M343.886,15.3856L276.222,15.3856L276.222,218.113L343.886,218.113L343.886,15.3856Z" fill="rgb(255,255,255)" stroke="none" stroke-width="1"/><g id="eb1ksj06lYT9_ts" transform="translate(325.15799,101.363503) scale(1,1)"><path id="eb1ksj06lYT9" d="M358.99,0L291.326,0L291.326,202.727L358.99,202.727L358.99,0Z" transform="translate(-325.15799,-101.363503)" fill="rgb(135,210,215)" stroke="none" stroke-width="1"/></g><g id="eb1ksj06lYT10_ts" transform="translate(323.619995,30.468651) scale(1,1)"><path id="eb1ksj06lYT10" d="M371.018,0L276.222,0L276.222,60.9373L371.018,60.9373L371.018,0Z" transform="translate(-323.619995,-30.468651)" fill="rgb(135,210,215)" stroke="none" stroke-width="1"/></g><path id="eb1ksj06lYT11" d="M127.914,335.66C148.773,335.66,165.682,318.722,165.682,297.828C165.682,276.935,148.773,259.997,127.914,259.997C107.055,259.997,90.146,276.935,90.146,297.828C90.146,318.722,107.055,335.66,127.914,335.66Z" transform="matrix(1 0 0 1 0.000006 0)" fill="rgb(135,210,215)" stroke="none" stroke-width="1"/><path id="eb1ksj06lYT12" d="M265.513,289.851C296.179,289.851,321.039,264.95,321.039,234.232C321.039,203.514,296.179,178.613,265.513,178.613C234.846,178.613,209.986,203.514,209.986,234.232C209.986,264.95,234.846,289.851,265.513,289.851Z" fill="rgb(65,81,78)" stroke="none" stroke-width="1"/><g id="eb1ksj06lYT13_to" transform="translate(240.394506,234.232013)"><path id="eb1ksj06lYT13" d="M246.967,264.691C263.761,264.691,277.376,251.054,277.376,234.232C277.376,217.41,263.761,203.772,246.967,203.772C230.173,203.772,216.559,217.41,216.559,234.232C216.559,251.054,230.173,264.691,246.967,264.691Z" transform="translate(-246.967506,-234.231506)" fill="rgb(135,210,215)" stroke="none" stroke-width="1"/></g><g id="eb1ksj06lYT14_to" transform="translate(134.930572,280.175884)"><path id="eb1ksj06lYT14" d="M150.066,316.827C156.547,316.827,161.801,311.564,161.801,305.072C161.801,298.58,156.547,293.317,150.066,293.317C143.585,293.317,138.331,298.58,138.331,305.072C138.331,311.564,143.585,316.827,150.066,316.827Z" transform="translate(-131.049555,-287.419384)" fill="rgb(71,160,159)" stroke="none" stroke-width="1"/></g><path id="eb1ksj06lYT15" d="M304.763,382C318.211,382,329.112,371.08,329.112,357.61C329.112,344.14,318.211,333.221,304.763,333.221C291.316,333.221,280.415,344.14,280.415,357.61C280.415,371.08,291.316,382,304.763,382Z" fill="rgb(65,81,78)" stroke="none" stroke-width="1"/><g id="eb1ksj06lYT16_ts" transform="translate(247.003997,77.363104) scale(1,1)"><path id="eb1ksj06lYT16" d="M276.222,77.1482L212.915,77.1482L212.915,154.883L276.222,154.883L276.222,77.1482Z" transform="translate(-244.568489,-116.015598)" fill="rgb(14,15,17)" stroke="none" stroke-width="1"/></g><g id="eb1ksj06lYT17_ts" transform="translate(176.392502,97.732548) scale(1,1)"><path id="eb1ksj06lYT17" d="M208.046,40.5821L144.739,40.5821L144.739,154.883L208.046,154.883L208.046,40.5821Z" transform="translate(-176.392502,-97.732548)" fill="rgb(14,15,17)" stroke="none" stroke-width="1"/></g><g id="eb1ksj06lYT18_to" transform="translate(311.921504,368.742004)"><path id="eb1ksj06lYT18" d="M309.945,376.168C317.255,376.168,323.181,370.232,323.181,362.91C323.181,355.588,317.255,349.652,309.945,349.652C302.635,349.652,296.708,355.588,296.708,362.91C296.708,370.232,302.635,376.168,309.945,376.168Z" transform="translate(-309.944504,-362.910004)" fill="rgb(14,15,17)" stroke="none" stroke-width="1"/></g><path id="eb1ksj06lYT19" d="M244.569,297.828L204.64,297.828L204.64,373.216L244.569,373.216L244.569,297.828Z" fill="rgb(65,81,78)" stroke="none" stroke-width="1"/><path id="eb1ksj06lYT20" d="M270.895,173.625C260.292,173.608,249.887,176.507,240.816,182.005L240.669,182.097L107.355,263.976C99.2105,268.526,92.9306,275.808,89.6212,284.541C86.3117,293.274,86.1851,302.896,89.2636,311.713C92.342,320.53,98.4281,327.976,106.45,332.739C114.471,337.502,123.913,339.277,133.113,337.75C137.016,337.098,140.799,335.861,144.336,334.083L285.394,288.384C299.138,284.866,311.126,276.444,319.108,264.698C327.089,252.952,330.515,238.691,328.742,224.594C326.968,210.496,320.117,197.533,309.476,188.138C298.834,178.742,285.135,173.562,270.95,173.57L270.895,173.625ZM279.737,287.009L148.144,329.003C144.837,330.628,141.308,331.753,137.672,332.341C135.686,332.664,133.678,332.829,131.667,332.836C126.848,332.879,122.068,331.969,117.6,330.158C113.133,328.347,109.067,325.671,105.634,322.282C102.202,318.893,99.4712,314.859,97.5987,310.411C95.7262,305.963,94.7488,301.189,94.7225,296.361C94.7238,287.45,98.017,278.853,103.968,272.228C106.738,269.136,110.013,266.538,113.652,264.545L238.015,189.359L238.161,189.267C246.652,184.211,256.349,181.55,266.226,181.565C279.379,181.335,292.155,185.974,302.104,194.594C312.054,203.214,318.479,215.208,320.148,228.278C321.817,241.349,318.613,254.576,311.15,265.427C303.686,276.278,292.488,283.989,279.701,287.082L279.737,287.009Z" transform="matrix(1 0 0 1 -4.040669 1.787573)" fill="rgb(71,160,159)" stroke="none" stroke-width="1"/><g id="eb1ksj06lYT21_to" transform="translate(247.003998,356.9505)"><path id="eb1ksj06lYT21" d="M247.004,369.714C254.041,369.714,259.746,363.999,259.746,356.95C259.746,349.901,254.041,344.187,247.004,344.187C239.966,344.187,234.262,349.901,234.262,356.95C234.262,363.999,239.966,369.714,247.004,369.714Z" transform="translate(-247.004,-356.9505)" fill="rgb(14,15,17)" stroke="none" stroke-width="1"/></g></g><clipPath id="eb1ksj06lYT22"><rect id="eb1ksj06lYT23" width="371" height="382" rx="0" ry="0" transform="matrix(1 0 0 1 0.018 0.584594)" fill="rgb(255,255,255)" stroke="none" stroke-width="1"/></clipPath></g></svg>