<svg width="371" height="381" viewBox="0 0 371 381" fill="none" xmlns="http://www.w3.org/2000/svg">
<g clip-path="url(#clip0)">
<path d="M268.826 160.221H101.332C59.7859 160.221 26.1064 193.868 26.1064 235.375V305.846C26.1064 347.353 59.7859 381 101.332 381H268.826C310.372 381 344.052 347.353 344.052 305.846V235.375C344.052 193.868 310.372 160.221 268.826 160.221Z" fill="#141645"/>
<path d="M100.728 144.107H33.5759L0 202.196L33.5759 260.304H100.728L134.322 202.196L100.728 144.107ZM94.7409 249.934H39.5807L11.9913 202.196L39.5807 154.478H94.7409L122.312 202.196L94.7409 249.934Z" fill="#3CC1D9"/>
<path d="M83.9944 173.225H50.382L33.6123 202.233L50.382 231.259H83.9944L100.782 202.233L83.9944 173.225Z" fill="#6373B7"/>
<path d="M67.1512 211.89C72.51 211.89 76.8541 207.55 76.8541 202.196C76.8541 196.843 72.51 192.503 67.1512 192.503C61.7924 192.503 57.4482 196.843 57.4482 202.196C57.4482 207.55 61.7924 211.89 67.1512 211.89Z" fill="#EDEBE7"/>
<path d="M343.887 15.3454H276.223V217.542H343.887V15.3454Z" fill="white"/>
<path d="M358.99 0H291.326V202.197H358.99V0Z" fill="#3CC1D9"/>
<path d="M371.018 0H276.223V60.7778H371.018V0Z" fill="#3CC1D9"/>
<path d="M127.914 334.781C148.773 334.781 165.682 317.888 165.682 297.049C165.682 276.21 148.773 259.316 127.914 259.316C107.055 259.316 90.1455 276.21 90.1455 297.049C90.1455 317.888 107.055 334.781 127.914 334.781Z" fill="#EDEBE7"/>
<path d="M265.513 289.092C296.179 289.092 321.039 264.256 321.039 233.619C321.039 202.982 296.179 178.145 265.513 178.145C234.846 178.145 209.986 202.982 209.986 233.619C209.986 264.256 234.846 289.092 265.513 289.092Z" fill="#1B1D51"/>
<path d="M246.967 263.999C263.761 263.999 277.376 250.397 277.376 233.619C277.376 216.84 263.761 203.239 246.967 203.239C230.173 203.239 216.559 216.84 216.559 233.619C216.559 250.397 230.173 263.999 246.967 263.999Z" fill="#3CC1D9"/>
<path d="M143.915 315.997C150.396 315.997 155.65 310.748 155.65 304.273C155.65 297.798 150.396 292.549 143.915 292.549C137.434 292.549 132.18 297.798 132.18 304.273C132.18 310.748 137.434 315.997 143.915 315.997Z" fill="#F6C99E"/>
<path d="M304.764 381C318.211 381 329.113 370.109 329.113 356.674C329.113 343.239 318.211 332.349 304.764 332.349C291.316 332.349 280.415 343.239 280.415 356.674C280.415 370.109 291.316 381 304.764 381Z" fill="#EDEBE7"/>
<path d="M276.222 76.9462H212.915V154.478H276.222V76.9462Z" fill="#141645"/>
<path d="M208.045 40.4759H144.738V154.478H208.045V40.4759Z" fill="#141645"/>
<path d="M303.793 375.184C311.103 375.184 317.029 369.263 317.029 361.96C317.029 354.657 311.103 348.736 303.793 348.736C296.483 348.736 290.557 354.657 290.557 361.96C290.557 369.263 296.483 375.184 303.793 375.184Z" fill="#C4688D"/>
<path d="M244.569 297.049H204.641V372.239H244.569V297.049Z" fill="#EDEBE7"/>
<path d="M270.895 173.225C260.292 173.206 249.887 176.097 240.816 181.584L240.67 181.675L107.355 263.322C99.7018 267.595 93.6836 274.284 90.2432 282.34C86.8028 290.397 86.1345 299.366 88.343 307.842C90.5516 316.319 95.5122 323.824 102.448 329.182C109.383 334.54 117.902 337.448 126.669 337.451C128.828 337.442 130.983 337.265 133.114 336.921C137.017 336.269 140.799 335.036 144.336 333.263L285.376 287.702C299.12 284.194 311.108 275.793 319.09 264.078C327.072 252.363 330.497 238.139 328.724 224.079C326.95 210.018 320.1 197.089 309.458 187.718C298.817 178.348 285.117 173.181 270.932 173.188L270.895 173.225ZM279.738 286.312L148.071 328.16C144.764 329.781 141.235 330.902 137.599 331.489C135.613 331.805 133.605 331.964 131.594 331.964C126.776 332.008 121.998 331.101 117.532 329.296C113.065 327.491 109 324.823 105.568 321.445C102.136 318.067 99.4046 314.046 97.5311 309.611C95.6575 305.177 94.6783 300.417 94.6496 295.604C94.6189 286.726 97.8798 278.152 103.803 271.534C106.572 268.443 109.847 265.846 113.488 263.852L237.85 188.863H237.997C246.484 183.812 256.183 181.157 266.062 181.181C279.215 180.952 291.99 185.579 301.94 194.176C311.89 202.773 318.315 214.736 319.984 227.772C321.653 240.808 318.449 254.001 310.985 264.824C303.522 275.646 292.324 283.337 279.536 286.422L279.738 286.312Z" fill="#47A09F"/>
<path d="M247.004 368.746C254.041 368.746 259.746 363.046 259.746 356.016C259.746 348.985 254.041 343.286 247.004 343.286C239.966 343.286 234.262 348.985 234.262 356.016C234.262 363.046 239.966 368.746 247.004 368.746Z" fill="#141645"/>
</g>
<defs>
<clipPath id="clip0">
<rect width="371" height="381" fill="white"/>
</clipPath>
</defs>
</svg>