<svg width="431" height="79" viewBox="0 0 431 79" fill="none" xmlns="http://www.w3.org/2000/svg">
<path d="M43.056 78V51.072L34.488 70.008H27L18.432 51.072V78H4.392V26.88H19.728L30.744 50.928L41.832 26.88H57.096V78H43.056ZM82.9243 78.72C78.5083 78.72 74.7403 77.832 71.6203 76.056C68.5483 74.28 66.1963 71.928 64.5643 69C62.9803 66.072 62.1883 62.928 62.1883 59.568C62.1883 55.92 62.9803 52.584 64.5643 49.56C66.1483 46.488 68.4763 44.04 71.5483 42.216C74.6203 40.344 78.4123 39.408 82.9243 39.408C87.4363 39.408 91.2283 40.32 94.3003 42.144C97.3723 43.968 99.7003 46.368 101.284 49.344C102.868 52.32 103.66 55.56 103.66 59.064C103.66 60.552 103.54 61.944 103.3 63.24H76.7323C76.8763 65.256 77.6203 66.72 78.9643 67.632C80.3083 68.496 81.7723 68.928 83.3563 68.928C84.8443 68.928 86.2363 68.592 87.5323 67.92C88.8763 67.248 89.7643 66.312 90.1963 65.112L101.788 68.424C100.252 71.448 97.8763 73.92 94.6603 75.84C91.4443 77.76 87.5323 78.72 82.9243 78.72ZM76.4443 55.032H88.9723C88.7803 53.208 88.1083 51.768 86.9563 50.712C85.8523 49.656 84.4363 49.128 82.7083 49.128C80.9803 49.128 79.5643 49.656 78.4603 50.712C77.3563 51.768 76.6843 53.208 76.4443 55.032ZM126.799 78.72C122.383 78.72 118.615 77.832 115.495 76.056C112.423 74.28 110.071 71.928 108.439 69C106.855 66.072 106.063 62.928 106.063 59.568C106.063 55.92 106.855 52.584 108.439 49.56C110.023 46.488 112.351 44.04 115.423 42.216C118.495 40.344 122.287 39.408 126.799 39.408C131.311 39.408 135.103 40.32 138.175 42.144C141.247 43.968 143.575 46.368 145.159 49.344C146.743 52.32 147.535 55.56 147.535 59.064C147.535 60.552 147.415 61.944 147.175 63.24H120.607C120.751 65.256 121.495 66.72 122.839 67.632C124.183 68.496 125.647 68.928 127.231 68.928C128.719 68.928 130.111 68.592 131.407 67.92C132.751 67.248 133.639 66.312 134.071 65.112L145.663 68.424C144.127 71.448 141.751 73.92 138.535 75.84C135.319 77.76 131.407 78.72 126.799 78.72ZM120.319 55.032H132.847C132.655 53.208 131.983 51.768 130.831 50.712C129.727 49.656 128.311 49.128 126.583 49.128C124.855 49.128 123.439 49.656 122.335 50.712C121.231 51.768 120.559 53.208 120.319 55.032ZM178.172 75.912C176.252 76.728 174.188 77.424 171.98 78C169.82 78.528 167.684 78.792 165.572 78.792C163.508 78.792 161.612 78.456 159.884 77.784C158.156 77.064 156.764 75.912 155.708 74.328C154.7 72.696 154.196 70.512 154.196 67.776V50.424H149.516V40.128H154.196V28.248H167.876V40.128H175.292V50.424H167.876V62.952C167.876 64.2 168.14 65.088 168.668 65.616C169.196 66.096 169.916 66.336 170.828 66.336C171.5 66.336 172.268 66.216 173.132 65.976C173.996 65.736 174.86 65.448 175.724 65.112L178.172 75.912Z" fill="#141645"/>
<g clip-path="url(#clip0)">
<path d="M248.66 70.2538C249.109 71.2117 248.743 72.3488 247.818 72.8726C247.3 73.1689 246.719 73.4722 246.077 73.7823C244.654 74.4784 242.983 75.1193 241.062 75.712C239.142 76.3046 237.008 76.8008 234.653 77.2006C232.304 77.6003 229.804 77.7933 227.152 77.7933C221.522 77.7933 216.473 76.8215 212.004 74.8712C207.536 72.9208 203.744 70.2951 200.628 66.994C197.52 63.6929 195.137 59.8611 193.487 55.5056C191.829 51.1431 191 46.5188 191 41.6257C191 36.2089 191.974 31.2193 193.929 26.657C195.883 22.0947 198.549 18.1665 201.927 14.8654C205.305 11.5642 209.262 8.98675 213.8 7.13289C218.338 5.28592 223.152 4.35555 228.25 4.35555C230.17 4.35555 232.125 4.48649 234.107 4.75526C236.096 5.01715 237.961 5.3824 239.722 5.84415C241.477 6.30589 243.031 6.85033 244.392 7.47747C244.91 7.71868 245.379 7.95989 245.801 8.2011C246.782 8.76622 247.085 10.0274 246.505 10.9991C246.422 11.137 246.346 11.2679 246.277 11.3919C245.98 11.9226 245.663 12.467 245.331 13.0253C244.999 13.5904 244.633 14.2313 244.24 14.9549C244.067 15.272 243.867 15.6303 243.646 16.0369C243.121 16.988 241.953 17.3326 240.966 16.8846C240.544 16.6916 240.095 16.5125 239.619 16.3471C238.458 15.9473 237.25 15.6234 235.993 15.3547C234.736 15.0928 233.458 14.8929 232.166 14.762C230.875 14.631 229.7 14.5621 228.637 14.5621C224.796 14.5621 221.239 15.272 217.958 16.6916C214.677 18.1113 211.852 20.0272 209.463 22.4393C207.08 24.8514 205.208 27.6425 203.847 30.8127C202.486 33.9829 201.81 37.2909 201.81 40.7229C201.81 44.093 202.452 47.332 203.744 50.4333C205.035 53.5414 206.824 56.3119 209.11 58.7584C211.397 61.205 214.139 63.1553 217.357 64.6095C220.569 66.0636 224.092 66.7872 227.939 66.7872C229.99 66.7872 231.98 66.5874 233.9 66.1946C235.82 65.7948 237.561 65.34 239.115 64.8093C240.669 64.2787 241.96 63.7549 242.99 63.2242C242.996 63.2174 243.01 63.2105 243.017 63.2105C244.053 62.6798 245.317 63.1002 245.808 64.1477L248.66 70.2538Z" fill="#141645"/>
<path d="M251.54 0H256.727C257.625 0 258.358 0.723626 258.358 1.62644V44.2239C259.815 40.9228 261.783 39.4066 264.436 37.3873C267.081 35.375 270.576 34.5549 274.748 34.4928C278.982 34.4308 282.38 35.5473 284.929 37.8629C287.478 40.1785 288.818 43.1832 288.949 46.8841V75.071C288.949 76.1461 288.079 77.0145 287.001 77.0145H282.353C281.275 77.0145 280.405 76.1461 280.405 75.071V50.7434C280.274 48.6277 279.541 46.8289 278.222 45.3403C276.896 43.8517 274.81 43.0454 271.964 42.9145C269.975 42.9145 268.159 43.2591 266.501 43.9551C264.843 44.6512 263.42 45.5884 262.232 46.7807C261.037 47.973 260.098 49.3926 259.4 51.0398C258.703 52.6938 258.358 54.5063 258.358 56.4911V75.0641C258.358 76.1392 257.487 77.0076 256.41 77.0076H251.858C250.78 77.0076 249.91 76.1392 249.91 75.0641V1.62644C249.91 0.723626 250.642 0 251.54 0Z" fill="#141645"/>
<path d="M291.892 56.6909C291.892 53.6517 292.472 50.7917 293.632 48.1177C294.793 45.4437 296.36 43.0937 298.35 41.0813C300.339 39.0689 302.639 37.4632 305.257 36.2709C307.875 35.0786 310.672 34.4859 313.649 34.4859C315.638 34.4859 317.455 34.734 319.112 35.2302C320.77 35.7264 322.193 36.3398 323.381 37.0634C324.576 37.794 325.529 38.552 326.261 39.3446C326.986 40.1371 327.484 40.8332 327.753 41.4259L328.05 37.0083C328.105 36.202 328.775 35.5817 329.583 35.5817H334.764C335.613 35.5817 336.297 36.264 336.297 37.1117V75.4845C336.297 76.3253 335.613 77.0145 334.764 77.0145H329.286C328.444 77.0145 327.753 76.3322 327.753 75.4845V71.763C327.422 72.2937 326.89 72.9208 326.164 73.6445C325.432 74.375 324.493 75.0504 323.333 75.6775C322.172 76.3046 320.798 76.8491 319.209 77.3108C317.62 77.7726 315.797 78.0069 313.746 78.0069C310.568 78.0069 307.64 77.428 304.953 76.2702C302.273 75.1124 299.966 73.5618 298.046 71.6114C296.126 69.6611 294.62 67.4006 293.529 64.8231C292.437 62.2456 291.892 59.5303 291.892 56.6909ZM300.436 56.1947C300.436 58.1106 300.781 59.8956 301.479 61.5496C302.176 63.2036 303.116 64.6232 304.311 65.8086C305.505 67.0009 306.928 67.9381 308.579 68.6342C310.237 69.3303 312.053 69.6749 314.043 69.6749C316.032 69.6749 317.869 69.3303 319.554 68.6342C321.24 67.9381 322.697 66.9802 323.927 65.7604C325.149 64.5406 326.095 63.1209 326.758 61.5013C327.422 59.8818 327.753 58.1175 327.753 56.2016C327.753 54.2857 327.422 52.5215 326.758 50.9019C326.095 49.2824 325.149 47.8765 323.927 46.6911C322.697 45.4988 321.247 44.5616 319.554 43.8655C317.869 43.1695 316.025 42.8249 314.043 42.8249C312.053 42.8249 310.237 43.1695 308.579 43.8655C306.921 44.5616 305.499 45.4988 304.311 46.6911C303.116 47.8834 302.176 49.2824 301.479 50.9019C300.781 52.5146 300.436 54.2788 300.436 56.1947Z" fill="#141645"/>
<path d="M336.67 19.7447C336.67 17.4497 337.506 15.5407 339.184 14.0108C340.856 12.4808 342.651 11.7159 344.572 11.7159C346.485 11.7159 348.26 12.4808 349.89 14.0108C351.52 15.5407 352.335 17.4497 352.335 19.7447C352.335 22.0396 351.52 23.9279 349.89 25.4096C348.26 26.8913 346.492 27.6287 344.572 27.6287C342.651 27.6287 340.856 26.8913 339.184 25.4096C337.513 23.9279 336.67 22.0396 336.67 19.7447Z" fill="#3CC1D9"/>
<path d="M347.086 77.0076H341.712C340.863 77.0076 340.179 76.3184 340.179 75.4776V37.1117C340.179 36.264 340.869 35.5817 341.712 35.5817H347.086C347.935 35.5817 348.619 36.2709 348.619 37.1117V75.4776C348.626 76.3253 347.935 77.0076 347.086 77.0076Z" fill="#141645"/>
<path d="M387.513 77.0076H349.918L373.761 42.8111H359.857C357.536 42.8111 355.616 42.184 354.097 40.9297C352.57 39.6754 351.811 37.9869 351.811 35.8781V32.9078C351.811 32.1979 352.391 31.619 353.102 31.619H358.165C358.876 31.619 359.457 32.1979 359.457 32.9078C359.457 34.0311 359.719 34.7616 360.251 35.0855C360.783 35.4163 361.639 35.5817 362.834 35.5817H389.357L366.212 68.6825H387.52C388.37 68.6825 389.06 69.3716 389.06 70.2193V75.4708C389.053 76.3253 388.363 77.0076 387.513 77.0076Z" fill="#141645"/>
<path d="M429.459 77.9035H425.274C424.472 77.9035 423.802 77.2901 423.733 76.4907L423.457 66.4013C421.931 69.7713 419.202 72.5487 416.453 74.7264C413.704 76.9042 410.209 78 405.975 78C401.734 78 398.378 76.8629 395.891 74.5817C393.404 72.3006 392.099 69.3165 391.968 65.6088V37.1186C391.968 36.2709 392.658 35.5748 393.515 35.5748H398.868C399.718 35.5748 400.415 36.264 400.415 37.1186V61.8459C400.546 63.8927 401.292 65.6432 402.653 67.0974C404.007 68.5515 406.113 69.3785 408.959 69.5784C410.948 69.5784 412.765 69.2338 414.423 68.5377C416.08 67.8417 417.503 66.9044 418.691 65.7121C419.886 64.5199 420.812 63.1002 421.475 61.4531C422.138 59.7991 422.469 57.9866 422.469 56.0018V37.1186C422.469 36.2709 423.16 35.5748 424.017 35.5748H429.473C430.323 35.5748 431.02 36.264 431.02 37.1186V76.3529C431 77.2143 430.309 77.9035 429.459 77.9035Z" fill="#141645"/>
</g>
<defs>
<clipPath id="clip0">
<rect width="240" height="78" fill="white" transform="translate(191)"/>
</clipPath>
</defs>
</svg>
