<svg width="371" height="382" viewBox="0 0 371 382" fill="none" xmlns="http://www.w3.org/2000/svg">
<g clip-path="url(#clip0)">
<path d="M268.826 160.641H101.332C59.7859 160.641 26.1064 194.377 26.1064 235.992V306.649C26.1064 348.264 59.7859 382 101.332 382H268.826C310.372 382 344.052 348.264 344.052 306.649V235.992C344.052 194.377 310.372 160.641 268.826 160.641Z" fill="#0E0F11"/>
<path d="M100.746 144.467H33.5756L0.0546875 202.727L33.6305 260.969H100.746L134.34 202.727L100.746 144.467ZM94.759 250.571H39.5804L11.9911 202.727L39.5804 154.865H94.7407L122.312 202.727L94.759 250.571Z" fill="#87D2D7"/>
<path d="M83.9394 173.625H50.3819L33.6123 202.727L50.3819 231.811H83.9394L100.746 202.727L83.9394 173.625Z" fill="#47A09F"/>
<path d="M67.1517 212.446C72.5105 212.446 76.8546 208.095 76.8546 202.727C76.8546 197.359 72.5105 193.008 67.1517 193.008C61.7929 193.008 57.4487 197.359 57.4487 202.727C57.4487 208.095 61.7929 212.446 67.1517 212.446Z" fill="#41514E"/>
<path d="M343.886 15.3856H276.222V218.113H343.886V15.3856Z" fill="white"/>
<path d="M358.99 0H291.326V202.727H358.99V0Z" fill="#87D2D7"/>
<path d="M371.018 0H276.222V60.9373H371.018V0Z" fill="#87D2D7"/>
<path d="M127.914 335.66C148.773 335.66 165.682 318.722 165.682 297.828C165.682 276.935 148.773 259.997 127.914 259.997C107.055 259.997 90.146 276.935 90.146 297.828C90.146 318.722 107.055 335.66 127.914 335.66Z" fill="#87D2D7"/>
<path d="M265.513 289.851C296.179 289.851 321.039 264.95 321.039 234.232C321.039 203.514 296.179 178.613 265.513 178.613C234.846 178.613 209.986 203.514 209.986 234.232C209.986 264.95 234.846 289.851 265.513 289.851Z" fill="#41514E"/>
<path d="M246.967 264.691C263.761 264.691 277.376 251.054 277.376 234.232C277.376 217.41 263.761 203.772 246.967 203.772C230.173 203.772 216.559 217.41 216.559 234.232C216.559 251.054 230.173 264.691 246.967 264.691Z" fill="#87D2D7"/>
<path d="M150.066 316.827C156.547 316.827 161.801 311.564 161.801 305.072C161.801 298.58 156.547 293.317 150.066 293.317C143.585 293.317 138.331 298.58 138.331 305.072C138.331 311.564 143.585 316.827 150.066 316.827Z" fill="#47A09F"/>
<path d="M304.763 382C318.211 382 329.112 371.08 329.112 357.61C329.112 344.14 318.211 333.221 304.763 333.221C291.316 333.221 280.415 344.14 280.415 357.61C280.415 371.08 291.316 382 304.763 382Z" fill="#41514E"/>
<path d="M276.222 77.1482H212.915V154.883H276.222V77.1482Z" fill="#0E0F11"/>
<path d="M208.046 40.5821H144.739V154.883H208.046V40.5821Z" fill="#0E0F11"/>
<path d="M309.945 376.168C317.255 376.168 323.181 370.232 323.181 362.91C323.181 355.588 317.255 349.652 309.945 349.652C302.635 349.652 296.708 355.588 296.708 362.91C296.708 370.232 302.635 376.168 309.945 376.168Z" fill="#0E0F11"/>
<path d="M244.569 297.828H204.64V373.216H244.569V297.828Z" fill="#41514E"/>
<path d="M270.895 173.625C260.292 173.608 249.887 176.507 240.816 182.005L240.669 182.097L107.355 263.976C99.2105 268.526 92.9306 275.808 89.6212 284.541C86.3117 293.274 86.1851 302.896 89.2636 311.713C92.342 320.53 98.4281 327.976 106.45 332.739C114.471 337.502 123.913 339.277 133.113 337.75C137.016 337.098 140.799 335.861 144.336 334.083L285.394 288.384C299.138 284.866 311.126 276.444 319.108 264.698C327.089 252.952 330.515 238.691 328.742 224.594C326.968 210.496 320.117 197.533 309.476 188.138C298.834 178.742 285.135 173.562 270.95 173.57L270.895 173.625ZM279.737 287.009L148.144 329.003C144.837 330.628 141.308 331.753 137.672 332.341C135.686 332.664 133.678 332.829 131.667 332.836C126.848 332.879 122.068 331.969 117.6 330.158C113.133 328.347 109.067 325.671 105.634 322.282C102.202 318.893 99.4712 314.859 97.5987 310.411C95.7262 305.963 94.7488 301.189 94.7225 296.361C94.7238 287.45 98.017 278.853 103.968 272.228C106.738 269.136 110.013 266.538 113.652 264.545L238.015 189.359L238.161 189.267C246.652 184.211 256.349 181.55 266.226 181.565C279.379 181.335 292.155 185.974 302.104 194.594C312.054 203.214 318.479 215.208 320.148 228.278C321.817 241.349 318.613 254.576 311.15 265.427C303.686 276.278 292.488 283.989 279.701 287.082L279.737 287.009Z" fill="#47A09F"/>
<path d="M247.004 369.714C254.041 369.714 259.746 363.999 259.746 356.95C259.746 349.901 254.041 344.187 247.004 344.187C239.966 344.187 234.262 349.901 234.262 356.95C234.262 363.999 239.966 369.714 247.004 369.714Z" fill="#0E0F11"/>
</g>
<defs>
<clipPath id="clip0">
<rect width="371" height="382" fill="white"/>
</clipPath>
</defs>
</svg>
