<svg width="82" height="145" viewBox="0 0 82 145" fill="none" xmlns="http://www.w3.org/2000/svg">
<path d="M62.124 21.8161C62.1018 18.0123 61.1138 14.4434 59.4043 11.3332C55.6856 4.57579 48.5478 0 40.3444 0C32.141 0 25.0032 4.57579 21.2845 11.3332C19.5861 14.4098 18.6092 17.9452 18.5648 21.7154C18.5648 21.8049 18.5537 21.8832 18.5537 21.9727C18.5537 27.4547 20.5518 32.4445 23.8487 36.2931C25.314 38.0048 27.0458 39.4816 28.9662 40.6787C32.2853 42.7372 36.1705 43.9455 40.3555 43.9455C44.5405 43.9455 48.4257 42.7372 51.7448 40.6787C53.6653 39.4816 55.397 38.016 56.8623 36.2931C60.1481 32.4445 62.1573 27.4547 62.1573 21.9727C62.1351 21.9168 62.124 21.8721 62.124 21.8161ZM61.8354 22.0846C61.5023 22.3867 61.1249 22.6664 60.7031 22.9013C61.1249 22.6664 61.5023 22.3979 61.8354 22.0846ZM35.5822 24.9487C35.8264 24.0425 36.3148 23.237 36.9809 22.6216C36.3259 23.237 35.8264 24.0425 35.5822 24.9487Z" fill="#141645"/>
<path d="M53.0495 27.2058C57.8606 26.4189 61.1278 21.8502 60.347 17.0014C59.5661 12.1526 55.033 8.8598 50.222 9.64673C45.4109 10.4337 42.1437 15.0023 42.9245 19.8511C43.7053 24.6999 48.2384 27.9927 53.0495 27.2058Z" fill="#C4688D"/>
<path d="M53.8711 24.298C57.7018 23.6714 60.3032 20.0337 59.6815 16.173C59.0598 12.3122 55.4504 9.69042 51.6197 10.317C47.789 10.9436 45.1876 14.5813 45.8093 18.442C46.431 22.3027 50.0404 24.9246 53.8711 24.298Z" fill="#141645"/>
<path d="M39.6342 80.4959C31.0866 80.4959 23.1718 82.5432 16.7334 86.0003C17.5215 93.1045 27.3457 98.7319 39.3788 98.7319C39.4677 98.7319 39.5565 98.7207 39.6342 98.7207C39.723 98.7207 39.8118 98.7319 39.8895 98.7319C51.9226 98.7319 61.7357 93.1157 62.5349 86.0003C56.0854 82.5432 48.1817 80.4959 39.6342 80.4959Z" fill="#141645"/>
<path d="M60.9575 82.5072C60.9575 82.5072 84.8319 72.3317 55 45" stroke="#C4688D" stroke-width="4" stroke-miterlimit="10" stroke-linecap="round"/>
<path d="M29.5212 45.2433C27.8117 44.4601 26.2798 43.498 24.981 42.3792C23.8043 43.4197 22.9274 44.5944 22.439 45.8586H22.4279V45.8922C22.1503 46.6306 21.9949 47.4025 21.9949 48.1857C21.9949 48.3311 22.0171 48.4653 22.0282 48.5996L21.7285 50.6022C25.0587 49.5058 27.7784 47.5927 29.5212 45.2433Z" fill="#C4688D"/>
<path d="M49.7363 45.2433C51.4791 47.6039 54.1988 49.5058 57.529 50.6022L57.2293 48.5996C57.2404 48.4653 57.2626 48.3199 57.2626 48.1857C57.2626 47.3913 57.1072 46.6306 56.8297 45.8922V45.8586H56.8186C56.3413 44.5944 55.4532 43.4197 54.2765 42.3792C52.9777 43.498 51.4458 44.4601 49.7363 45.2433Z" fill="#C4688D"/>
<path d="M62.2799 82.8453L57.5177 50.6022C54.1875 49.5058 51.4789 47.5927 49.725 45.2433C46.7833 46.5858 43.331 47.3801 39.6234 47.3801C35.9157 47.3801 32.4634 46.5858 29.5217 45.2433C27.7789 47.6039 25.0592 49.5058 21.729 50.6022L16.9668 82.8453C16.767 83.5725 16.6338 84.3109 16.6338 85.0717C16.6338 85.3849 16.6782 85.687 16.7115 85.9891C23.1499 82.5321 31.0647 80.4847 39.6123 80.4847C48.1598 80.4847 56.0746 82.5321 62.513 85.9891C62.5463 85.687 62.5907 85.3738 62.5907 85.0717C62.6129 84.3109 62.4797 83.5725 62.2799 82.8453Z" fill="#C4688D"/>
<path d="M22.2103 91C22.2103 91 21.0953 116.28 24 143L22.2103 91Z" fill="#C4C4C4"/>
<path d="M22.2103 91C22.2103 91 21.0953 116.28 24 143" stroke="#141645" stroke-width="4" stroke-miterlimit="10" stroke-linecap="round"/>
<path d="M58 90C58 90 61 109.451 61 142L58 90Z" fill="#C4C4C4"/>
<path d="M58 90C58 90 61 109.451 61 142" stroke="#141645" stroke-width="4" stroke-miterlimit="10" stroke-linecap="round"/>
<path d="M24 46C24 46 -19.9999 32.5 18.5 11.5" stroke="#C4688D" stroke-width="4" stroke-miterlimit="10" stroke-linecap="round"/>
<path d="M32.912 27.3615C38.2758 26.085 41.5973 20.6679 40.3307 15.262C39.0642 9.8561 33.6892 6.50855 28.3254 7.78503C22.9615 9.06152 19.64 14.4787 20.9066 19.8846C22.1731 25.2905 27.5481 28.638 32.912 27.3615Z" fill="#C4688D"/>
<path d="M33.7086 24.9259C38.3385 23.824 41.2056 19.148 40.1123 14.4818C39.0191 9.81551 34.3795 6.92597 29.7495 8.0278C25.1195 9.12964 22.2525 13.8056 23.3457 18.4719C24.439 23.1382 29.0786 26.0277 33.7086 24.9259Z" fill="#141645"/>
</svg>